HIERARCHY
ROOT Hips
{
  OFFSET 267.745 86.9975 -272.335
  CHANNELS 6 Xposition Yposition Zposition Zrotation Xrotation Yrotation
  JOINT LeftUpLeg
  {
    OFFSET 8.64259 1.95398 -2.38835
    CHANNELS 3 Zrotation Xrotation Yrotation
    JOINT LeftLeg
    {
      OFFSET 43.7702 0 0
      CHANNELS 3 Zrotation Xrotation Yrotation
      JOINT LeftFoot
      {
        OFFSET 40.6238 0 0
        CHANNELS 3 Zrotation Xrotation Yrotation
        JOINT LeftToeBase
        {
          OFFSET 12.7242 0 0
          CHANNELS 3 Zrotation Xrotation Yrotation
          End Site
          {
            OFFSET 0 0 0
          }
        }
      }
    }
  }
  JOINT RightUpLeg
  {
    OFFSET -8.2249 1.95398 -2.59336
    CHANNELS 3 Zrotation Xrotation Yrotation
    JOINT RightLeg
    {
      OFFSET 43.5653 0 0
      CHANNELS 3 Zrotation Xrotation Yrotation
      JOINT RightFoot
      {
        OFFSET 40.6238 0 0
        CHANNELS 3 Zrotation Xrotation Yrotation
        JOINT RightToeBase
        {
          OFFSET 12.7242 0 0
          CHANNELS 3 Zrotation Xrotation Yrotation
          End Site
          {
            OFFSET 0 0 0
          }
        }
      }
    }
  }
  JOINT Spine
  {
    OFFSET 0.165834 0.87714 6.61349
    CHANNELS 3 Zrotation Xrotation Yrotation
    JOINT Spine1
    {
      OFFSET 7.38963 1.71661e-005 0
      CHANNELS 3 Zrotation Xrotation Yrotation
      JOINT Spine2
      {
        OFFSET 11.9445 1.14441e-005 0
        CHANNELS 3 Zrotation Xrotation Yrotation
        JOINT Spine3
        {
          OFFSET 14.7254 4.19617e-005 0
          CHANNELS 3 Zrotation Xrotation Yrotation
          JOINT Spine4
          {
            OFFSET 10.9679 0 0
            CHANNELS 3 Zrotation Xrotation Yrotation
            JOINT RightShoulder
            {
              OFFSET 2.46616 -1.6653 3.69651
              CHANNELS 3 Zrotation Xrotation Yrotation
              JOINT RightArm
              {
                OFFSET 13.0012 0 0
                CHANNELS 3 Zrotation Xrotation Yrotation
                JOINT RightForeArm
                {
                  OFFSET 28.7848 1.52588e-005 0
                  CHANNELS 3 Zrotation Xrotation Yrotation
                  JOINT RightHand
                  {
                    OFFSET 26.5688 1.52588e-005 0
                    CHANNELS 3 Zrotation Xrotation Yrotation
                    End Site
                    {
                      OFFSET 0 0 0
                    }
                  }
                }
              }
            }
            JOINT LeftShoulder
            {
              OFFSET 2.38034 -1.29275 -3.7523
              CHANNELS 3 Zrotation Xrotation Yrotation
              JOINT LeftArm
              {
                OFFSET 16.3182 6.10352e-005 0
                CHANNELS 3 Zrotation Xrotation Yrotation
                JOINT LeftForeArm
                {
                  OFFSET 27.0901 0 0
                  CHANNELS 3 Zrotation Xrotation Yrotation
                  JOINT LeftHand
                  {
                    OFFSET 24.5451 1.52588e-005 0
                    CHANNELS 3 Zrotation Xrotation Yrotation
                    End Site
                    {
                      OFFSET 0 0 0
                    }
                  }
                }
              }
            }
            JOINT Neck
            {
              OFFSET 5.0226 -0.0266342 0
              CHANNELS 3 Zrotation Xrotation Yrotation
              JOINT Head
              {
                OFFSET 6.69364 2.86102e-005 0
                CHANNELS 3 Zrotation Xrotation Yrotation
                End Site
                {
                  OFFSET 0 0 0
                }
              }
            }
          }
        }
      }
    }
  }
}
MOTION
Frames:	19
Frame Time:	0.0416667
-268.053 80.1953 268.092 91.4332 31.3183 83.7233 -163.144 -10.9265 85.8563 -68.9451 15.4998 -4.27092 36.2509 68.9969 136.821 10.1365 -2.37297 15.8114 176.533 -18.0096 105.313 8.36946 12.5633 -68.6423 57.7813 19.7167 92.9449 46.2171 -5.13019 -11.2067 2.46065 4.83627 -89.6692 17.2269 5.01504 -0.225828 5.56552 5.00024 -0.446902 -17.044 4.85192 1.2955 2.96861 4.85194 1.29549 129.099 -24.5211 -25.264 -59.433 -31.9453 -134.262 -137.667 -53.0204 179.97 -21.7234 -4.601 19.1093 -52.763 -42.5653 137.517 -6.06378 56.59 -23.0325 55.062 -8.36912 -80.4464 19.4104 -13.1963 -66.053 70.5272 -5.90605 13.9864 -112.45 -9.99814 -6.57142 
-268.753 79.8161 268.859 91.3924 31.4167 83.2772 -163.486 -10.9739 85.2272 -68.148 14.8675 -4.47262 37.0769 68.4362 136.063 10.8774 -2.49732 16.3351 177.605 -15.3053 105.495 1.59497 15.0762 -68.3125 73.0067 16.8754 88.3564 47.6723 -6.78742 -22.8506 2.46387 4.81382 -89.6155 17.2698 5.04864 -0.126131 5.60864 5.03822 -0.348797 -17.0012 4.85283 1.40069 3.01142 4.85285 1.40069 129.019 -24.3349 -25.2546 -56.4872 -33.9253 -131.554 -138.603 -49.1956 179.972 -21.8241 -4.92757 20.6578 -52.7838 -42.6716 137.435 -6.70726 56.6741 -21.8813 57.498 -8.21437 -80.2666 19.7584 -13.3532 -65.842 69.813 -5.90784 14.0869 -112.06 -9.79318 -6.7216 
-270.765 78.7076 271.057 91.2606 31.7109 81.9766 -164.513 -11.0243 83.3759 -65.8434 13.0841 -5.07435 39.2507 66.249 134.272 13.3749 -2.78942 17.7952 -179.635 -9.22285 104.913 -14.5921 20.6907 -64.1064 108.002 0.144296 77.2261 46.1796 -8.41337 -51.3199 2.47413 4.74753 -89.4581 17.3961 5.14922 0.166274 5.73538 5.15156 -0.0611446 -16.8751 4.86062 1.70982 3.13756 4.86062 1.70982 128.786 -23.7893 -25.2265 -45.6068 -38.8746 -121.686 -141.783 -37.2545 179.977 -21.8073 -5.85418 25.3377 -52.851 -42.9755 137.19 -8.56099 56.8823 -18.5653 65.9077 -7.51376 -79.5521 20.9734 -13.7448 -64.6224 67.7162 -5.92565 14.3748 -110.902 -9.20264 -7.16449 
-273.943 76.9052 274.494 91.007 32.2178 79.8644 -166.252 -10.7319 80.3573 -62.2295 10.542 -6.10427 42.0741 60.1995 132.798 19.0154 -3.01698 20.098 -175.642 -2.20794 102.514 -40.2857 20.0916 -51.6636 134.259 -38.336 76.0356 43.1696 -9.40268 -78.1809 2.49414 4.63775 -89.1986 17.6045 5.32171 0.646961 5.9444 5.34502 0.411433 -16.6662 4.8807 2.22007 3.34649 4.88069 2.22007 128.403 -22.8896 -25.1767 -20.1245 -41.4208 -99.2733 -148.965 -15.3004 179.983 -20.5861 -7.04124 33.2502 -52.9797 -43.4521 136.774 -11.4943 57.1144 -13.3134 85.6995 -4.96977 -77.8214 23.1653 -13.6209 -59.8682 64.2598 -5.9979 14.8238 -108.96 -8.27014 -7.9005 
-278.118 74.3379 278.937 90.5901 32.9754 76.97 -168.555 -8.91328 76.4804 -58.5251 8.29109 -7.74217 46.1855 43.5215 133.023 32.5216 -2.5272 25.1765 -170.775 5.39471 98.8027 -67.9446 7.90444 -38.5218 130.517 -77.9691 62.5557 58.2144 -32.0569 -86.3459 2.52912 4.4845 -88.8353 17.8944 5.57823 1.31616 6.235 5.63071 1.06864 -16.3738 4.92432 2.93522 3.63879 4.92434 2.93521 127.867 -21.6243 -25.0946 17.1861 -26.092 -70.5434 -164.147 18.2214 179.991 -16.7254 -7.25608 43.0277 -53.1925 -44.0802 136.165 -15.3369 57.2461 -6.39637 123.166 1.68672 -76.5915 21.3901 -10.062 -49.4178 59.416 -6.18517 15.3961 -106.174 -7.05022 -8.94656 
-283.022 71.4429 283.908 89.9811 34.0266 73.3195 -171.045 -3.74039 73.2124 -56.9407 9.37697 -10.7011 56.1208 1.2375 134.196 61.8367 6.35755 45.4551 -165.164 12.6664 93.2552 -86.2937 -5.81204 -30.4628 -21.2712 -71.9871 -88.5844 151.159 -24.2859 13.0967 2.58734 4.29121 -88.3689 18.2558 5.93592 2.17015 6.59703 6.02563 1.906 -16.0066 5.00917 3.85666 4.00609 5.00916 3.85665 127.188 -19.9831 -24.9447 49.4196 11.9234 -63.9144 170.925 59.6399 -179.99 -12.4951 -6.26847 50.2254 -53.4942 -44.8834 135.352 -19.8218 57.1356 1.82702 157.992 7.72125 -78.4867 12.4956 -5.11795 -41.9118 53.1806 -6.53882 16.0614 -102.489 -5.60263 -10.3379 
-288.699 69.062 289.3 89.1843 35.3994 68.9674 -173.395 1.8029 68.5094 -56.8473 16.0174 -9.66484 73.118 -67.2437 123.033 76.8185 30.1359 88.6765 -158.271 18.6381 85.4825 -96.3885 -16.4426 -25.3108 -29.9738 -53.8915 -92.4009 131.896 15.4831 44.9792 2.68068 4.02562 -87.7788 18.7525 6.42977 3.23153 7.09419 6.56568 2.9446 -15.4984 5.16204 5.01621 4.51427 5.16203 5.01621 126.161 -17.7616 -24.9344 91.0133 43.9327 -94.0702 -33.3509 80.3696 -0.102592 -14.1655 -7.9019 55.1608 -54.1962 -45.3526 134.089 -25.227 56.9238 11.447 175.411 10.4205 -79.6729 7.03605 -2.9935 -38.7164 44.883 -7.48572 16.2767 -97.4665 -4.21777 -12.0099 
-295.491 64.9817 295.951 88.2518 37.0061 64.0774 -175.636 4.92404 60.2461 -56.8145 23.8264 -5.08899 -77.6623 -68.5656 -61.1163 48.2834 13.6547 152.233 -149.047 25.119 76.1801 -105.627 -22.4367 -21.4181 -33.9046 -43.5039 -91.7317 120.811 19.8794 52.9557 2.80116 3.83808 -87.1033 19.0769 7.02691 4.47001 7.41835 7.21665 4.15566 -15.1537 5.36106 6.3746 4.85894 5.36106 6.37459 125.737 -16.1182 -24.2101 133.795 41.9538 -137.767 -48.6498 47.8593 -0.0349042 -21.0684 -13.7532 62.2322 -54.4772 -46.7091 133.093 -28.5495 55.9385 19.4896 -175.787 11.9389 -79.6512 4.94602 -2.1799 -36.2022 37.1278 -8.54568 16.2687 -92.4168 -3.03972 -13.8598 
-303.13 59.3093 303.551 87.0435 38.4887 58.9835 -177.929 7.24553 51.2927 -55.8301 30.0876 -1.95641 -66.0789 -53.2614 -73.2305 -118.686 -67.8657 25.5892 -135.449 30.5545 64.4035 -114.735 -26.5336 -18.3995 -36.0298 -38.587 -89.394 116.88 20.2621 55.1531 3.1601 3.88732 -86.8138 18.9456 7.88142 4.89527 7.29072 8.08895 4.54256 -15.2954 6.04902 7.03722 4.71727 6.04901 7.03722 125.367 -12.8077 -21.5035 144.799 24.374 -154.624 -57.689 26.1351 -0.0292571 -29.0957 -22.0746 69.9437 -52.248 -54.1326 133.357 -29.9218 52.8761 27.4506 -170.543 12.8625 -78.7172 4.21544 -1.82249 -33.8014 30.8532 -5.59629 24.3283 -88.6145 1.81712 -18.8612 
-311.397 52.522 311.795 85.2911 39.7964 53.8935 -178.906 10.2485 41.1254 -56.8119 33.4163 2.80971 -55.7548 -46.6545 -79.9491 -133.989 26.5589 12.1415 -116.285 32.1334 49.7684 -123.099 -31.4754 -16.5692 -36.1574 -37.9785 -84.0717 115.526 20.1335 55.6425 3.63724 4.02217 -86.5413 18.6458 8.95751 5.26297 6.99686 9.18012 4.86183 -15.618 6.96546 7.71264 4.39468 6.96547 7.71263 125.364 -9.68138 -17.8105 145.98 7.39393 -161.614 -63.0223 8.099 -0.0281068 -38.073 -31.9535 75.2961 -48.6433 -62.8227 134.811 -29.5185 49.3497 33.9751 -167.174 13.4549 -77.5559 4.10624 -1.65619 -31.521 24.0073 -3.79641 33.292 -84.2483 6.27701 -24.7624 
-319.903 44.8481 320.352 83.4342 41.1687 48.9272 -178.592 12.5206 31.4612 -58.2219 34.403 7.57435 -46.3795 -42.4975 -82.2032 -120.21 49.9959 4.34018 -95.0852 26.8287 36.3936 -129.34 -37.8384 -15.9225 -32.9104 -41.2919 -74.7569 115.118 19.973 55.6435 4.0703 4.18853 -86.8134 18.3425 9.66186 4.60477 6.70109 9.85492 4.17214 -15.9748 7.83315 7.30269 4.03788 7.83314 7.30268 125.233 -6.51311 -13.9077 140.865 -12.2234 -162.568 -68.5217 -5.79318 0.0706474 -47.8438 -41.927 77.3753 -36.5923 -74.1316 144.511 -30.6661 42.1515 41.1776 -164.273 13.1445 -76.3984 4.29031 -1.56947 -29.3768 14.7732 -0.691286 48.6186 -78.8354 12.4732 -32.5307 
-327.215 36.1862 328.285 81.8769 42.6051 44.234 -177.78 11.8622 24.4984 -58.6848 34.395 9.93832 -35.7352 -38.6022 -78.1915 -103.427 57.4466 -6.93242 -77.1607 15.9058 29.4279 -133.496 -43.4248 -15.9131 -24.8544 -47.2385 -62.8563 115.04 19.8615 55.5448 4.53339 4.46437 -87.0994 17.8238 10.4205 3.94106 6.19041 10.5837 3.47435 -16.552 8.75408 6.90547 3.46063 8.75407 6.90547 126.404 -5.10085 -9.08966 137.442 -34.9072 -163.5 -71.6426 -25.2645 -0.869632 -59.7479 -51.0889 75.1182 6.25214 -83.0962 -175.069 -30.2484 35.0171 45.8642 -162.224 12.4404 -75.3607 4.61361 -1.5168 -27.4219 6.02208 -1.59153 61.4458 -73.2215 15.5324 -39.9221 
-333.514 27.8502 335.524 80.7533 44.0298 39.8981 -177.402 6.5719 22.5312 -53.8984 34.1058 7.42238 -26.5992 -30.7072 -67.8629 -88.3482 59.3704 -17.2411 -63.8351 1.88578 29.5678 -134.239 -47.187 -16.3579 -9.44564 -53.7761 -46.5391 115.071 19.7988 55.4534 4.96395 4.8118 -87.4959 17.1743 11.0628 3.10365 5.54851 11.1885 2.6081 -17.2623 9.61599 6.30914 2.75029 9.61599 6.30916 129.23 -5.95437 -4.0608 133.909 -60.8065 -163.526 -76.7517 -31.0174 -10.3441 -74.2443 -58.3318 68.3172 87.7924 -80.0087 -96.0917 -29.8723 27.468 49.0212 -160.589 11.3592 -74.4613 4.99255 -1.47634 -25.6552 -1.53709 -4.98376 72.1169 -68.2555 16.2673 -46.4638 
-339.317 20.4168 342.296 80.0786 45.3827 35.9523 -177.279 -4.62353 26.8083 -42.0682 34.491 -1.81671 -23.7771 -16.9022 -53.8286 -76.7532 59.0181 -24.8368 -53.6613 -13.5252 35.4736 -131.12 -48.3899 -16.7628 15.2568 -57.3522 -23.9151 115.129 19.7732 55.3949 4.29572 6.12296 -85.7706 17.4374 11.3208 7.52888 5.83956 11.6583 7.02065 -17.0866 8.39687 10.5494 2.92602 8.39688 10.5494 138.864 -17.2271 -0.0266583 107.338 -71.091 162.756 -75.5967 -34.9216 -18.0208 -98.5469 -62.9697 51.2549 5.87691 -73.2918 -163.592 -23.9862 25.9218 39.1936 -160.355 10.1477 -74.188 5.39023 -1.44297 -24.1077 10.5279 -31.7995 55.1378 -68.7734 12.932 -38.0706 
-344.725 13.9202 348.633 79.8134 46.6224 32.4023 176.625 -25.2276 35.5388 -6.31624 31.1596 -26.008 -38.6748 -0.00598552 -39.3125 -67.6085 57.8937 -30.5064 -43.9818 -29.4724 46.5937 -124.655 -46.7827 -16.5474 43.3209 -54.3566 -0.480753 115.178 19.7735 55.3714 0.49365 0.667903 -73.9708 21.737 9.44012 30.9797 9.72804 10.7184 30.5931 -9.8038 0.317075 32.2666 10.2088 0.317075 32.2666 164.682 -53.8338 1.85693 160.042 -17.6063 142.341 -47.5599 -42.9443 -6.43974 -145.67 -54.6008 13.1507 -68.1544 8.96075 131.791 17.1766 31.3668 -19.9439 -164.601 8.8945 -75.4779 5.79874 -1.42363 -22.872 -18.3622 2.78328 -88.9673 -55.8605 -13.8651 14.1048 
-349.747 8.29089 354.521 79.8904 47.7233 29.2405 175.181 -48.8208 36.3046 24.0948 44.2012 -33.3344 -47.8457 12.0823 -43.3696 -58.8263 56.4919 -35.8848 -30.0916 -44.9528 65.09 -115.75 -42.5716 -15.6145 64.9242 -44.6493 14.7734 115.208 19.791 55.3787 0.0426489 1.46189 -73.1526 21.4737 9.26974 32.5099 9.44438 10.6187 32.1361 -9.92421 -0.331338 33.6643 10.0884 -0.331336 33.6643 168.164 -51.7957 7.31712 150.84 -32.0921 137.108 -42.4527 -29.3844 -11.1886 -164.867 -30.8054 -1.27856 -69.1874 9.40432 138.512 17.2542 21.8643 -18.7155 -164.643 6.92036 -74.6132 6.14016 -1.38871 -21.6814 -24.5672 -1.28471 -98.5742 -58.2942 -7.51055 11.8618 
-354.344 3.38519 359.929 80.2341 48.6742 26.457 -170.355 -67.3954 39.6886 12.1427 71.2174 -12.8084 -36.2364 20.7149 -50.9222 -49.5885 54.6765 -41.4828 -3.11888 -56.0921 98.3476 -105.328 -35.8997 -14.2157 78.5739 -30.4535 21.0978 115.213 19.8202 55.4119 -0.530691 1.31535 -71.9748 21.5464 8.79536 35.0575 9.45104 10.2382 34.7105 -9.4159 -1.419 35.9823 10.5968 -1.419 35.9823 170.502 -50.4495 10.8062 144.489 -42.5138 129.381 -12.6722 57.8934 -19.3539 -152.744 72.7277 -25.8032 -69.8374 12.3093 140.667 18.9334 12.9631 -20.5141 -164.926 5.12033 -74.0479 6.44049 -1.35372 -20.6528 -26.1963 3.56158 -103.64 -58.3089 -3.17375 13.4833 
-358.451 -0.891787 364.787 80.7719 49.4741 24.0465 -127.829 -78.0041 80.6769 166.104 80.7332 -165.961 -31.3261 17.2407 -58.8014 -41.151 52.4055 -46.2516 34.7319 -53.7298 143.564 -94.1691 -26.8745 -12.7049 86.518 -13.8451 21.5769 115.191 19.8576 55.4681 -0.362739 -0.547696 -79.4765 20.2746 7.31168 21.4146 8.84989 8.29769 21.0974 -15.553 0.018119 22.4495 4.4596 0.0181228 22.4494 170.395 -47.5116 12.8095 130.287 -54.1151 115.304 176.394 -57.508 -174.065 114.202 -78.2456 -59.505 -70.3395 14.4196 142.56 19.8199 5.05974 -21.6548 -165.138 3.54082 -73.6117 6.69159 -1.31864 -19.7712 -27.4074 7.94412 -107.245 -58.4389 1.11676 15.167 
-361.962 -4.50177 368.975 81.4381 50.1268 22.0091 -70.3042 -74.3051 137.965 2.19269 54.8711 -3.15343 -47.7749 64.6202 1.11345 -34.8358 50.1007 -49.3458 56.9647 -38.5246 173.546 -83.1341 -16.3571 -11.4093 90.0977 2.49432 19.0166 115.14 19.9016 55.5461 3.81964 12.5374 -111.327 1.81601 -1.81539 -42.796 -10.6624 -3.44435 -42.7076 -26.8002 9.4647 -41.8953 -6.78757 9.4647 -41.8953 168.53 -43.2602 13.9671 84.115 -63.0458 71.6344 18.224 -77.2344 1.31011 153.171 -2.35693 -5.03627 -70.7538 15.9935 144.089 20.1358 -1.52664 -22.3239 -165.283 2.23543 -73.2777 6.88863 -1.28463 -19.0329 -28.23 11.877 -109.671 -58.5502 5.14145 16.7815 
